<svg width="132" height="163" viewBox="0 0 132 163" fill="none" xmlns="http://www.w3.org/2000/svg">
<path d="M110.242 86.1253C110.47 110.658 131.764 118.822 132 118.926C131.82 119.502 128.598 130.561 120.781 141.983C114.025 151.859 107.012 161.698 95.9649 161.902C85.1101 162.102 81.6197 155.465 69.2096 155.465C56.8033 155.465 52.9252 161.698 42.65 162.102C31.9868 162.505 23.8669 151.423 17.054 141.583C3.13257 121.457 -7.50627 84.7101 6.77901 59.9056C13.8756 47.5875 26.5578 39.7872 40.3232 39.5872C50.7942 39.3874 60.6775 46.6317 67.0785 46.6317C73.4755 46.6317 85.4859 37.9198 98.1119 39.1993C103.398 39.4193 118.235 41.3344 127.762 55.2798C126.994 55.7557 110.058 65.615 110.242 86.1254M89.8421 25.8837C95.5032 19.0311 99.3135 9.49168 98.274 0C90.1139 0.327963 80.2465 5.43767 74.3934 12.2865C69.1479 18.3514 64.5541 28.0588 65.7936 37.3626C74.889 38.0663 84.1806 32.7407 89.8421 25.8837" fill="black"/>
</svg>
