<svg width="171" height="175" viewBox="0 0 171 175" fill="none" xmlns="http://www.w3.org/2000/svg">
<path d="M170.511 89.0665C170.511 83.332 170.003 77.8879 169.132 72.5889H87.1066V105.326H134.072C131.967 116.07 125.796 125.143 116.65 131.313V153.09H144.67C161.075 137.919 170.511 115.561 170.511 89.0665Z" fill="#4285F4"/>
<path d="M87.1064 174.214C110.625 174.214 130.297 166.374 144.669 153.09L116.65 131.313C108.811 136.54 98.8658 139.734 87.1064 139.734C64.3861 139.734 45.1501 124.418 38.2541 103.73H9.36377V126.16C23.6638 154.615 53.0623 174.214 87.1064 174.214Z" fill="#34A853"/>
<path d="M38.2543 103.729C36.4396 98.5029 35.4959 92.9136 35.4959 87.1065C35.4959 81.2994 36.5122 75.7101 38.2543 70.4837V48.0537H9.36395C3.41167 59.8131 0 73.0243 0 87.1065C0 101.189 3.41167 114.4 9.36395 126.159L38.2543 103.729Z" fill="#FBBC05"/>
<path d="M87.1064 34.4797C99.9547 34.4797 111.424 38.9076 120.497 47.5457L145.323 22.7203C130.297 8.63808 110.625 0 87.1064 0C53.0623 0 23.6638 19.599 9.36377 48.0538L38.2541 70.4838C45.1501 49.796 64.3861 34.4797 87.1064 34.4797Z" fill="#EA4335"/>
</svg>
