<svg width="405" height="163" viewBox="0 0 405 163" fill="none" xmlns="http://www.w3.org/2000/svg">
<path d="M0 151.009H78.6702V162.27H0V151.009Z" fill="#1F70C1"/>
<path d="M0 129.407H78.6702V140.709H0V129.407Z" fill="#1F70C1"/>
<path d="M22.4431 107.846H56.1874V119.148H22.4431V107.846Z" fill="#1F70C1"/>
<path d="M22.4431 86.2849H56.1874V97.5866H22.4431V86.2849Z" fill="#1F70C1"/>
<path d="M22.4431 64.7235H56.1874V76.0252H22.4431V64.7235Z" fill="#1F70C1"/>
<path d="M22.4431 43.1224H56.1874V54.4241H22.4431V43.1224Z" fill="#1F70C1"/>
<path d="M78.6702 21.561H0V32.8627H78.6702V21.561Z" fill="#1F70C1"/>
<path d="M78.6702 0H0V11.3017H78.6702V0Z" fill="#1F70C1"/>
<path d="M89.8917 140.709H210.883C212.927 137.222 214.449 133.415 215.372 129.407H89.8917V140.709Z" fill="#1F70C1"/>
<path d="M201.465 86.2849H112.375V97.5866H210.883C208.318 93.258 205.152 89.451 201.465 86.2849Z" fill="#1F70C1"/>
<path d="M112.375 64.7235V76.0252H201.465C205.232 72.8591 208.398 69.0517 210.883 64.7235H112.375Z" fill="#1F70C1"/>
<path d="M210.883 21.561H89.8917V32.8627H215.372C214.33 28.855 212.807 25.048 210.883 21.561Z" fill="#1F70C1"/>
<path d="M173.692 0H89.8918V11.3017H202.587C195.053 4.32815 184.833 0 173.692 0Z" fill="#1F70C1"/>
<path d="M146.079 43.1224H112.375V54.4241H146.079V43.1224Z" fill="#1F70C1"/>
<path d="M179.824 54.4241H215.091C216.093 50.8174 216.614 47.01 216.614 43.1224H179.824V54.4241Z" fill="#1F70C1"/>
<path d="M112.375 107.846H146.079V119.148H112.375V107.846Z" fill="#1F70C1"/>
<path d="M179.824 107.846V119.148H216.614C216.614 115.26 216.093 111.453 215.091 107.846H179.824Z" fill="#1F70C1"/>
<path d="M89.8917 162.19L173.692 162.31C184.914 162.31 195.053 157.982 202.627 151.009H89.8917V162.19Z" fill="#1F70C1"/>
<path d="M224.79 151.009H280.977V162.27H224.79V151.009Z" fill="#1F70C1"/>
<path d="M224.79 129.407H280.977V140.709H224.79V129.407Z" fill="#1F70C1"/>
<path d="M247.233 107.846H280.977V119.148H247.233V107.846Z" fill="#1F70C1"/>
<path d="M247.233 86.2849H280.977V97.5866H247.233V86.2849Z" fill="#1F70C1"/>
<path d="M296.607 21.561H224.79V32.8627H300.494L296.607 21.561Z" fill="#1F70C1"/>
<path d="M289.152 0H224.79V11.3017H293.04L289.152 0Z" fill="#1F70C1"/>
<path d="M348.386 151.009H404.613V162.27H348.386V151.009Z" fill="#1F70C1"/>
<path d="M348.386 129.407H404.613V140.709H348.386V129.407Z" fill="#1F70C1"/>
<path d="M348.386 107.846H382.13V119.148H348.386V107.846Z" fill="#1F70C1"/>
<path d="M348.386 86.2849H382.13V97.5866H348.386V86.2849Z" fill="#1F70C1"/>
<path d="M348.386 76.0252H382.13V64.7235H348.386H317.848L314.682 73.8613L311.515 64.7235H280.977H247.233V76.0252H280.977V65.6452L284.544 76.0252H344.819L348.386 65.6452V76.0252Z" fill="#1F70C1"/>
<path d="M382.13 43.1224H325.302L321.414 54.4241H382.13V43.1224Z" fill="#1F70C1"/>
<path d="M340.25 0L336.363 11.3017H404.613V0H340.25Z" fill="#1F70C1"/>
<path d="M314.682 162.19L318.569 151.009H310.794L314.682 162.19Z" fill="#1F70C1"/>
<path d="M307.227 140.709H322.136L326.143 129.407H303.26L307.227 140.709Z" fill="#1F70C1"/>
<path d="M299.653 119.148H329.71L333.678 107.846H295.685L299.653 119.148Z" fill="#1F70C1"/>
<path d="M292.118 97.5866H337.284L341.132 86.2849H288.231L292.118 97.5866Z" fill="#1F70C1"/>
<path d="M247.233 54.4241H307.948L304.061 43.1224H247.233V54.4241Z" fill="#1F70C1"/>
<path d="M328.909 32.8627H404.613V21.561H332.756L328.909 32.8627Z" fill="#1F70C1"/>
</svg>
