<svg width="400" height="52" viewBox="0 0 400 52" fill="none" xmlns="http://www.w3.org/2000/svg">
<path d="M173.061 33.8035H199.442L185.507 11.2961L159.888 51.948H148.238L179.397 3.17605C180.076 2.20282 180.979 1.40658 182.029 0.854013C183.079 0.301451 184.246 0.00866709 185.433 0.000189504C186.62 -0.00828808 187.791 0.267787 188.849 0.805288C189.907 1.34279 190.821 2.12606 191.514 3.08949L222.759 51.948H211.109L205.622 42.8585H178.929L173.113 33.8035M294.164 42.8585V0.492469H284.263V47.031C284.261 47.6777 284.391 48.3181 284.644 48.9133C284.896 49.5085 285.268 50.0461 285.734 50.4937C286.203 50.9733 286.763 51.3537 287.382 51.6125C288 51.8712 288.664 52.003 289.335 52H334.342L340.21 42.9104H294.112M130.46 35.2925C135.074 35.2925 139.499 33.4593 142.762 30.1961C146.024 26.933 147.857 22.5072 147.857 17.8925C147.857 13.2777 146.024 8.85195 142.762 5.58881C139.499 2.32568 135.074 0.492469 130.46 0.492469H87.1844V51.948H97.0686V9.59934H129.854C132.063 9.59934 134.181 10.4767 135.742 12.0385C137.304 13.6002 138.181 15.7184 138.181 17.9271C138.181 20.1358 137.304 22.254 135.742 23.8157C134.181 25.3775 132.063 26.2549 129.854 26.2549H101.967L131.499 51.948H145.849L126.012 35.2925H130.46ZM26.3904 51.948H56.2854C62.9899 51.774 69.3612 48.988 74.0416 44.1837C78.7221 39.3794 81.3414 32.9368 81.3414 26.2289C81.3414 19.521 78.7221 13.0784 74.0416 8.27411C69.3612 3.46981 62.9899 0.683778 56.2854 0.509783H26.3904C22.9574 0.420688 19.5413 1.02004 16.3436 2.27249C13.1458 3.52494 10.2312 5.40513 7.7716 7.80218C5.31198 10.1992 3.35715 13.0646 2.0224 16.2294C0.687652 19.3941 0 22.7941 0 26.2289C0 29.6637 0.687652 33.0637 2.0224 36.2284C3.35715 39.3932 5.31198 42.2586 7.7716 44.6556C10.2312 47.0527 13.1458 48.9329 16.3436 50.1853C19.5413 51.4378 22.9574 52.0371 26.3904 51.948M55.6103 42.8931H27.0482C22.7269 42.7537 18.6292 40.9387 15.6216 37.8321C12.6141 34.7254 10.9325 30.5706 10.9325 26.2462C10.9325 21.9219 12.6141 17.767 15.6216 14.6604C18.6292 11.5537 22.7269 9.73874 27.0482 9.59934H55.6103C57.8412 9.52737 60.0638 9.9047 62.146 10.7089C64.2281 11.5131 66.1274 12.7277 67.7309 14.2806C69.3345 15.8336 70.6095 17.693 71.4803 19.7486C72.351 21.8041 72.7997 24.0138 72.7997 26.2462C72.7997 28.4786 72.351 30.6883 71.4803 32.7438C70.6095 34.7994 69.3345 36.6589 67.7309 38.2118C66.1274 39.7647 64.2281 40.9793 62.146 41.7835C60.0638 42.5877 57.8412 42.965 55.6103 42.8931M243.41 51.948H273.929L279.71 42.8931H244.086C241.855 42.965 239.632 42.5877 237.55 41.7835C235.468 40.9793 233.568 39.7647 231.965 38.2118C230.361 36.6589 229.086 34.7994 228.216 32.7438C227.345 30.6883 226.896 28.4786 226.896 26.2462C226.896 24.0138 227.345 21.8041 228.216 19.7486C229.086 17.693 230.361 15.8336 231.965 14.2806C233.568 12.7277 235.468 11.5131 237.55 10.7089C239.632 9.9047 241.855 9.52737 244.086 9.59934H273.08L278.931 0.509783H243.41C239.977 0.420688 236.561 1.02004 233.364 2.27249C230.166 3.52494 227.251 5.40513 224.792 7.80218C222.332 10.1992 220.377 13.0646 219.042 16.2294C217.708 19.3941 217.02 22.7941 217.02 26.2289C217.02 29.6637 217.708 33.0637 219.042 36.2284C220.377 39.3932 222.332 42.2586 224.792 44.6556C227.251 47.0527 230.166 48.9329 233.364 50.1853C236.561 51.4378 239.977 52.0371 243.41 51.948M364.358 42.8931C360.731 42.8945 357.203 41.7115 354.31 39.524C351.416 37.3365 349.316 34.2641 348.329 30.7737H390.6L396.417 21.7014H348.329C349.314 18.2096 351.413 15.1355 354.307 12.9476C357.201 10.7597 360.73 9.57779 364.358 9.58203H393.37L399.169 0.492469H363.683C356.978 0.666465 350.607 3.4525 345.927 8.2568C341.246 13.0611 338.627 19.5037 338.627 26.2116C338.627 32.9194 341.246 39.3621 345.927 44.1664C350.607 48.9707 356.978 51.7567 363.683 51.9307H394.201L400 42.8758H364.341" fill="#C74634"/>
</svg>
