<svg id="Ñëîé_1" data-name="Ñëîé 1" xmlns="http://www.w3.org/2000/svg" xmlns:xlink="http://www.w3.org/1999/xlink" viewBox="0 0 438.49 194.07"><defs><style>.cls-1{fill:url(#Áåçûìÿííûé_ãðàäèåíò_33);}.cls-2{fill:url(#Áåçûìÿííûé_ãðàäèåíò_33-2);}.cls-3{fill:url(#Áåçûìÿííûé_ãðàäèåíò_33-3);}.cls-4{fill:#020230;opacity:0.6;}.cls-5{fill:url(#Áåçûìÿííûé_ãðàäèåíò_33-4);}.cls-6{fill:url(#Áåçûìÿííûé_ãðàäèåíò_33-5);}</style><linearGradient id="Áåçûìÿííûé_ãðàäèåíò_33" x1="405.87" y1="138.65" x2="438.49" y2="138.65" gradientUnits="userSpaceOnUse"><stop offset="0" stop-color="#e39a65"/><stop offset="1" stop-color="#e95f8d"/></linearGradient><linearGradient id="Áåçûìÿííûé_ãðàäèåíò_33-2" x1="361.22" y1="93.95" x2="416" y2="93.95" xlink:href="#Áåçûìÿííûé_ãðàäèåíò_33"/><linearGradient id="Áåçûìÿííûé_ãðàäèåíò_33-3" x1="0" y1="112.31" x2="54.78" y2="112.31" xlink:href="#Áåçûìÿííûé_ãðàäèåíò_33"/><linearGradient id="Áåçûìÿííûé_ãðàäèåíò_33-4" x1="63.77" y1="108.79" x2="356.13" y2="108.79" xlink:href="#Áåçûìÿííûé_ãðàäèåíò_33"/><linearGradient id="Áåçûìÿííûé_ãðàäèåíò_33-5" x1="68.22" y1="22.02" x2="145" y2="22.02" xlink:href="#Áåçûìÿííûé_ãðàäèåíò_33"/></defs><path class="cls-1" d="M422.18,148.24a7,7,0,0,1-3.48-.93L407,140.53a2.17,2.17,0,0,1,0-3.77L418.7,130a7,7,0,0,1,7,0l11.74,6.77a2.17,2.17,0,0,1,0,3.77l-11.74,6.78A7,7,0,0,1,422.18,148.24Zm0-17.32a5.13,5.13,0,0,0-2.55.68l-11.74,6.78a.31.31,0,0,0-.15.27.32.32,0,0,0,.15.27l11.74,6.77h0a5.1,5.1,0,0,0,5.1,0l11.74-6.77a.32.32,0,0,0,.15-.27.31.31,0,0,0-.15-.27l-11.74-6.78A5.15,5.15,0,0,0,422.18,130.92Z"/><path class="cls-2" d="M388.61,109.79a11.27,11.27,0,0,1-5.65-1.52l-20.2-11.66a3.06,3.06,0,0,1,0-5.31L383,79.63a11.36,11.36,0,0,1,11.31,0l20.2,11.67a3.07,3.07,0,0,1,0,5.31l-20.2,11.66A11.31,11.31,0,0,1,388.61,109.79Zm-4.72-3.13a9.49,9.49,0,0,0,9.45,0L413.54,95a1.19,1.19,0,0,0,.6-1,1.18,1.18,0,0,0-.6-1l-20.2-11.66a9.44,9.44,0,0,0-9.45,0l-20.2,11.66a1.17,1.17,0,0,0-.61,1,1.19,1.19,0,0,0,.61,1Z"/><path class="cls-3" d="M27.39,128.14a11.4,11.4,0,0,1-5.66-1.51L1.54,115a3.07,3.07,0,0,1,0-5.32L21.73,98A11.31,11.31,0,0,1,33,98l20.2,11.66a3.07,3.07,0,0,1,0,5.32L33,126.63A11.36,11.36,0,0,1,27.39,128.14Zm0-29.8a9.47,9.47,0,0,0-4.73,1.26L2.46,111.26a1.2,1.2,0,0,0-.6,1,1.17,1.17,0,0,0,.61,1L22.66,125h0a9.51,9.51,0,0,0,9.46,0l20.19-11.67a1.17,1.17,0,0,0,.61-1,1.19,1.19,0,0,0-.61-1L32.11,99.6A9.43,9.43,0,0,0,27.39,98.34Z"/><path class="cls-4" d="M231.94,179,87.5,95.63c-2.1-1.22-1.84-3.34.59-4.75l92.7-53.52c2.43-1.4,6.11-1.55,8.21-.34l144.43,83.39c2.11,1.22,1.85,3.34-.58,4.74l-92.7,53.52C237.72,180.07,234,180.23,231.94,179Z"/><path class="cls-5" d="M235.24,194.07A9.18,9.18,0,0,1,230.7,193h0L65.86,97.83a3.69,3.69,0,0,1-2.09-3.15c0-1.45,1-2.86,2.76-3.87L178.9,25c3.08-1.78,7.61-1.95,10.31-.39L354,119.76a3.66,3.66,0,0,1,2.09,3.15c0,1.45-1,2.85-2.76,3.87L241,192.61A11.86,11.86,0,0,1,235.24,194.07ZM184.68,25.39a10,10,0,0,0-4.85,1.2L67.47,92.42c-1.15.66-1.83,1.51-1.83,2.26a2,2,0,0,0,1.15,1.54l164.84,95.17h0c2.11,1.22,6,1,8.44-.39l112.37-65.83c1.15-.67,1.83-1.51,1.83-2.26a2,2,0,0,0-1.15-1.54L188.28,26.2A7.29,7.29,0,0,0,184.68,25.39Z"/><path class="cls-6" d="M106.61,44.05A15.63,15.63,0,0,1,98.8,42h0L70.21,25.45a3.94,3.94,0,0,1,0-6.85L98.8,2.09a15.62,15.62,0,0,1,15.62,0L143,18.6a4,4,0,0,1,0,6.85L114.43,42A15.67,15.67,0,0,1,106.61,44.05Zm-6.88-3.7a13.82,13.82,0,0,0,13.77,0l28.59-16.51a2.09,2.09,0,0,0,0-3.63L113.5,3.7a13.82,13.82,0,0,0-13.77,0L71.13,20.21a2.1,2.1,0,0,0,0,3.63Z"/><path class="cls-4" d="M120.36,30.43c-7.67,4.43-20.11,4.43-27.78,0s-7.67-11.61,0-16,20.11-4.43,27.78,0S128,26,120.36,30.43Z"/></svg>