<svg id="Ñëîé_1" data-name="Ñëîé 1" xmlns="http://www.w3.org/2000/svg" xmlns:xlink="http://www.w3.org/1999/xlink" viewBox="0 0 288.61 262.5"><defs><style>.cls-1{fill:url(#Áåçûìÿííûé_ãðàäèåíò_113);}.cls-2{fill:url(#Áåçûìÿííûé_ãðàäèåíò_109);}.cls-3{fill:url(#Áåçûìÿííûé_ãðàäèåíò_343);}.cls-4{fill:#fff;}.cls-5,.cls-9{opacity:0.4;}.cls-10,.cls-6,.cls-9{fill:#06033e;}.cls-7{fill:url(#Áåçûìÿííûé_ãðàäèåíò_343-2);}.cls-8{fill:url(#Áåçûìÿííûé_ãðàäèåíò_441);}.cls-10,.cls-12{opacity:0.5;}.cls-11{fill:url(#Áåçûìÿííûé_ãðàäèåíò_343-3);}.cls-13{fill:#e8975b;}.cls-14{fill:#f8359e;}</style><radialGradient id="Áåçûìÿííûé_ãðàäèåíò_113" cx="139.18" cy="-4.66" r="223.3" gradientUnits="userSpaceOnUse"><stop offset="0" stop-color="#e39a65"/><stop offset="0.47" stop-color="#a92ffb"/><stop offset="0.59" stop-color="#891cfb"/><stop offset="0.74" stop-color="#6507fa"/><stop offset="0.8" stop-color="#0d0c6f"/></radialGradient><radialGradient id="Áåçûìÿííûé_ãðàäèåíò_109" cx="2.6" cy="174.67" r="244.17" gradientUnits="userSpaceOnUse"><stop offset="0" stop-color="#e39a65"/><stop offset="0.47" stop-color="#a92ffb"/><stop offset="0.57" stop-color="#891cfb"/><stop offset="0.68" stop-color="#6507fa"/><stop offset="0.74" stop-color="#0d0c6f"/></radialGradient><radialGradient id="Áåçûìÿííûé_ãðàäèåíò_343" cx="25.06" cy="125.66" r="218.96" gradientUnits="userSpaceOnUse"><stop offset="0" stop-color="#e39a65"/><stop offset="0.47" stop-color="#a92ffb"/><stop offset="0.59" stop-color="#891cfb"/><stop offset="0.73" stop-color="#6507fa"/><stop offset="1" stop-color="#3919bb"/></radialGradient><radialGradient id="Áåçûìÿííûé_ãðàäèåíò_343-2" cx="79.61" cy="41.92" r="223.34" xlink:href="#Áåçûìÿííûé_ãðàäèåíò_343"/><linearGradient id="Áåçûìÿííûé_ãðàäèåíò_441" x1="104.16" y1="100.55" x2="283.12" y2="100.55" gradientUnits="userSpaceOnUse"><stop offset="0" stop-color="#3919bb"/><stop offset="1" stop-color="#6507fa"/></linearGradient><radialGradient id="Áåçûìÿííûé_ãðàäèåíò_343-3" cx="-1.92" cy="-5.77" r="347.85" xlink:href="#Áåçûìÿííûé_ãðàäèåíò_343"/></defs><path class="cls-1" d="M285.72,83.62,141.86.56a3.72,3.72,0,0,0-2.94-.42h0l-2.67.93.94.22a4.81,4.81,0,0,0-.88,1.65L103.77,108.57a6.36,6.36,0,0,0,2.64,7.11l143.86,83a4.18,4.18,0,0,0,1.06.44l-.36.77,2.55-.89h0a4.08,4.08,0,0,0,2.31-2.69L288.36,90.72A6.38,6.38,0,0,0,285.72,83.62Z"/><path class="cls-2" d="M245.12,202.68l0,.06-142.1-82c-2.09-1.21-5.74-1.06-8.15.34L3.11,174,.05,172.87l.86,4.3h0a2.58,2.58,0,0,0,1.38,1.72L145.7,261.68c2.09,1.21,5.74,1.06,8.16-.33l92-53.14a3.7,3.7,0,0,0,1.95-2.28h0l.88-4.18Z"/><path class="cls-3" d="M145.85,257.91,1.42,174.52c-2.1-1.22-1.84-3.34.59-4.74l92.7-53.52c2.43-1.4,6.11-1.56,8.21-.34l144.43,83.39c2.11,1.21,1.84,3.33-.59,4.74l-92.7,53.52C151.63,259,148,259.12,145.85,257.91Z"/><path class="cls-4" d="M246.76,202.92l-92.7,53.52c-2.43,1.4-6.1,1.56-8.21.34L1.42,173.39A2.64,2.64,0,0,1,.11,171.9a2.25,2.25,0,0,0,1.31,2.62l144.43,83.39c2.11,1.21,5.78,1.06,8.21-.34l92.7-53.52c1.6-.93,2.24-2.16,1.9-3.25A3.74,3.74,0,0,1,246.76,202.92Z"/><g class="cls-5"><path class="cls-6" d="M70.31,161l-4.87-2.82c-.4-.22-.35-.62.11-.88L71.3,154a1.73,1.73,0,0,1,1.53-.07l4.88,2.82c.39.22.34.62-.11.88l-5.76,3.32A1.73,1.73,0,0,1,70.31,161Z"/><path class="cls-6" d="M77.84,165.33,73,162.52c-.39-.23-.35-.62.11-.88l5.75-3.33a1.72,1.72,0,0,1,1.53-.06l4.88,2.82c.39.22.34.62-.11.88l-5.76,3.32A1.69,1.69,0,0,1,77.84,165.33Z"/><path class="cls-6" d="M85.37,169.68l-4.87-2.81c-.39-.23-.35-.62.11-.89l5.75-3.32a1.69,1.69,0,0,1,1.53-.06l4.88,2.81c.39.23.34.62-.11.89l-5.76,3.32A1.69,1.69,0,0,1,85.37,169.68Z"/><path class="cls-6" d="M95.79,166.09l-4.88-2.81c-.39-.23-.34-.62.11-.89l4.83-2.78a1.7,1.7,0,0,1,1.53-.07l4.88,2.82c.39.22.34.62-.11.88L97.32,166A1.69,1.69,0,0,1,95.79,166.09Z"/><path class="cls-6" d="M103.32,170.44l-4.88-2.82c-.39-.22-.34-.62.11-.88l4.83-2.79a1.69,1.69,0,0,1,1.53-.06l4.88,2.81c.39.23.34.63-.11.89l-4.83,2.79A1.69,1.69,0,0,1,103.32,170.44Z"/><path class="cls-6" d="M110.85,174.79,106,172c-.39-.22-.34-.62.11-.88l4.83-2.79a1.69,1.69,0,0,1,1.53-.06l4.88,2.81c.39.23.34.62-.11.88l-4.83,2.79A1.73,1.73,0,0,1,110.85,174.79Z"/><path class="cls-6" d="M118.38,179.13l-4.88-2.81c-.39-.23-.34-.62.11-.88l4.83-2.79a1.73,1.73,0,0,1,1.53-.07l4.88,2.82c.39.23.34.62-.11.88l-4.83,2.79A1.69,1.69,0,0,1,118.38,179.13Z"/><path class="cls-6" d="M125.91,183.48,121,180.67c-.39-.23-.34-.62.11-.89L126,177a1.7,1.7,0,0,1,1.53-.07l4.88,2.82c.39.22.34.62-.11.88l-4.83,2.79A1.69,1.69,0,0,1,125.91,183.48Z"/><path class="cls-6" d="M133.44,187.83,128.56,185c-.39-.22-.34-.62.11-.88l4.83-2.79a1.69,1.69,0,0,1,1.53-.06l4.88,2.82c.39.22.34.62-.11.88L135,187.77A1.69,1.69,0,0,1,133.44,187.83Z"/><path class="cls-6" d="M141,192.18l-4.88-2.82c-.39-.22-.34-.62.11-.88l4.83-2.79a1.69,1.69,0,0,1,1.53-.06l4.88,2.81c.39.23.34.62-.11.88l-4.83,2.79A1.7,1.7,0,0,1,141,192.18Z"/><path class="cls-6" d="M148.5,196.52l-4.88-2.81c-.39-.23-.34-.62.11-.88l4.83-2.79a1.69,1.69,0,0,1,1.53-.06l4.88,2.81c.39.23.34.62-.11.88L150,196.46A1.69,1.69,0,0,1,148.5,196.52Z"/><path class="cls-6" d="M156,200.87l-4.88-2.81c-.39-.23-.34-.62.11-.88l4.84-2.79a1.67,1.67,0,0,1,1.52-.07l4.88,2.82c.39.22.34.62-.11.88l-4.83,2.79A1.69,1.69,0,0,1,156,200.87Z"/><path class="cls-6" d="M163.56,205.22l-4.88-2.82c-.39-.22-.34-.62.11-.88l4.84-2.79a1.67,1.67,0,0,1,1.52-.06l4.88,2.82c.39.22.34.62-.11.88l-4.83,2.79A1.69,1.69,0,0,1,163.56,205.22Z"/><path class="cls-6" d="M106.88,164,102,161.22c-.39-.23-.35-.62.11-.88l4.83-2.79a1.73,1.73,0,0,1,1.53-.07l4.87,2.82c.39.22.34.62-.11.88L108.41,164A1.69,1.69,0,0,1,106.88,164Z"/><path class="cls-6" d="M99.24,159.62l-4.88-2.81c-.39-.23-.34-.63.11-.89l4.84-2.79a1.67,1.67,0,0,1,1.52-.06l4.88,2.82c.39.22.34.62-.11.88l-4.83,2.79A1.69,1.69,0,0,1,99.24,159.62Z"/><path class="cls-6" d="M91.59,155.2l-10.51-6.06c-.39-.23-.34-.62.11-.88L86,145.47a1.73,1.73,0,0,1,1.53-.07l10.5,6.07c.4.22.35.62-.11.88l-4.83,2.79A1.67,1.67,0,0,1,91.59,155.2Z"/><path class="cls-6" d="M96.94,149.83l-8.53-4.92c-.39-.23-.34-.63.11-.89l4.83-2.79a1.73,1.73,0,0,1,1.53-.06l8.52,4.92c.4.23.35.62-.1.88l-4.84,2.79A1.71,1.71,0,0,1,96.94,149.83Z"/><path class="cls-6" d="M114.41,168.38l-4.87-2.81c-.39-.23-.35-.63.11-.89l4.83-2.79a1.72,1.72,0,0,1,1.53-.06l4.87,2.82c.39.22.34.62-.11.88l-4.83,2.79A1.69,1.69,0,0,1,114.41,168.38Z"/><path class="cls-6" d="M121.94,172.73l-4.87-2.82c-.39-.22-.34-.62.11-.88l4.83-2.79a1.69,1.69,0,0,1,1.53-.06l4.87,2.81c.39.23.34.62-.11.89l-4.83,2.79A1.72,1.72,0,0,1,121.94,172.73Z"/><path class="cls-6" d="M129.47,177.08l-4.87-2.82c-.39-.23-.34-.62.11-.88l4.83-2.79a1.69,1.69,0,0,1,1.53-.06l4.87,2.81c.39.23.35.62-.11.88L131,177A1.73,1.73,0,0,1,129.47,177.08Z"/><path class="cls-6" d="M137,181.42l-4.87-2.81c-.39-.23-.34-.62.11-.88l4.83-2.79a1.73,1.73,0,0,1,1.53-.07l4.87,2.82c.39.23.35.62-.11.88l-4.83,2.79A1.69,1.69,0,0,1,137,181.42Z"/><path class="cls-6" d="M144.53,185.77,139.66,183c-.39-.23-.34-.62.11-.89l4.83-2.79a1.72,1.72,0,0,1,1.53-.06L151,182c.39.22.35.62-.11.88l-4.83,2.79A1.69,1.69,0,0,1,144.53,185.77Z"/><path class="cls-6" d="M152.06,190.12l-4.87-2.82c-.39-.22-.34-.62.11-.88l4.83-2.79a1.69,1.69,0,0,1,1.53-.06l4.87,2.81c.4.23.35.63-.11.89l-4.83,2.79A1.69,1.69,0,0,1,152.06,190.12Z"/><path class="cls-6" d="M159.6,194.47l-4.88-2.82c-.39-.22-.34-.62.11-.88l4.83-2.79a1.69,1.69,0,0,1,1.53-.06l4.87,2.81c.4.23.35.62-.11.88l-4.83,2.79A1.71,1.71,0,0,1,159.6,194.47Z"/><path class="cls-6" d="M167.13,198.81,162.25,196c-.39-.23-.34-.62.11-.88l4.83-2.79a1.73,1.73,0,0,1,1.53-.07l4.87,2.82c.4.23.35.62-.11.88l-4.83,2.79A1.67,1.67,0,0,1,167.13,198.81Z"/><path class="cls-6" d="M174.66,203.16l-4.88-2.81c-.39-.23-.34-.62.11-.89l4.83-2.78a1.7,1.7,0,0,1,1.53-.07l4.87,2.82c.4.22.35.62-.11.88l-4.83,2.79A1.67,1.67,0,0,1,174.66,203.16Z"/><path class="cls-6" d="M188,210.89l-10.64-6.14c-.39-.23-.34-.62.11-.88l4.83-2.79a1.73,1.73,0,0,1,1.53-.07l10.64,6.15c.39.22.34.62-.11.88l-4.83,2.79A1.69,1.69,0,0,1,188,210.89Z"/><path class="cls-6" d="M202.7,202.43l-9-5.19c-.39-.22-.34-.62.11-.88l4.83-2.79a1.69,1.69,0,0,1,1.53-.06l9,5.18c.39.23.34.62-.11.88l-4.83,2.79A1.73,1.73,0,0,1,202.7,202.43Z"/><path class="cls-6" d="M127.6,167.53l-4.88-2.81c-.39-.23-.34-.63.11-.89l4.84-2.79a1.67,1.67,0,0,1,1.52-.06l4.88,2.82c.39.22.34.62-.11.88l-4.83,2.79A1.69,1.69,0,0,1,127.6,167.53Z"/><path class="cls-6" d="M119.88,163.07,115,160.26c-.39-.23-.35-.62.11-.88l4.83-2.79a1.73,1.73,0,0,1,1.53-.07l4.87,2.82c.39.23.34.62-.11.88L121.41,163A1.69,1.69,0,0,1,119.88,163.07Z"/><path class="cls-6" d="M112.17,158.62l-4.88-2.82c-.39-.22-.34-.62.11-.88l4.83-2.79a1.69,1.69,0,0,1,1.53-.06l4.87,2.81c.4.23.35.63-.11.89l-4.83,2.79A1.7,1.7,0,0,1,112.17,158.62Z"/><path class="cls-6" d="M104.45,154.16l-4.88-2.81c-.39-.23-.34-.62.11-.88l4.83-2.79a1.73,1.73,0,0,1,1.53-.07l4.88,2.82c.39.22.34.62-.11.88L106,154.1A1.69,1.69,0,0,1,104.45,154.16Z"/><path class="cls-6" d="M135.13,171.88l-4.88-2.82c-.39-.22-.34-.62.11-.88l4.84-2.79a1.67,1.67,0,0,1,1.52-.06l4.88,2.81c.39.23.34.62-.11.89l-4.83,2.78A1.7,1.7,0,0,1,135.13,171.88Z"/><path class="cls-6" d="M142.66,176.23l-4.87-2.82c-.4-.23-.35-.62.1-.88l4.84-2.79a1.67,1.67,0,0,1,1.52-.06l4.88,2.81c.39.23.34.62-.11.88l-4.83,2.79A1.73,1.73,0,0,1,142.66,176.23Z"/><path class="cls-6" d="M150.19,180.57l-4.87-2.81c-.4-.23-.35-.62.1-.88l4.84-2.79a1.71,1.71,0,0,1,1.52-.07l4.88,2.82c.39.22.34.62-.11.88l-4.83,2.79A1.69,1.69,0,0,1,150.19,180.57Z"/><path class="cls-6" d="M157.72,184.92l-4.87-2.81c-.4-.23-.35-.63.11-.89l4.83-2.79a1.67,1.67,0,0,1,1.52-.06l4.88,2.82c.39.22.34.62-.11.88l-4.83,2.79A1.69,1.69,0,0,1,157.72,184.92Z"/><path class="cls-6" d="M165.25,189.27l-4.87-2.82c-.4-.22-.35-.62.11-.88l4.83-2.79a1.67,1.67,0,0,1,1.52-.06l4.88,2.81c.39.23.34.62-.11.89l-4.83,2.79A1.72,1.72,0,0,1,165.25,189.27Z"/><path class="cls-6" d="M172.78,193.62l-4.87-2.82c-.4-.23-.35-.62.11-.88l4.83-2.79a1.67,1.67,0,0,1,1.52-.06l4.88,2.81c.39.23.34.62-.11.88l-4.83,2.79A1.73,1.73,0,0,1,172.78,193.62Z"/><path class="cls-6" d="M180.31,198l-4.87-2.81c-.4-.23-.35-.62.11-.88l4.83-2.79a1.71,1.71,0,0,1,1.52-.07l4.88,2.82c.39.22.34.62-.11.88l-4.83,2.79A1.69,1.69,0,0,1,180.31,198Z"/><path class="cls-6" d="M187.84,202.31,183,199.5c-.39-.23-.35-.62.11-.89l4.83-2.79a1.72,1.72,0,0,1,1.53-.06l4.87,2.82c.39.22.34.62-.11.88l-4.83,2.79A1.69,1.69,0,0,1,187.84,202.31Z"/><path class="cls-6" d="M195.37,206.66l-4.87-2.82c-.39-.22-.35-.62.11-.88l4.83-2.79a1.69,1.69,0,0,1,1.53-.06l4.87,2.81c.39.23.34.62-.11.89l-4.83,2.79A1.72,1.72,0,0,1,195.37,206.66Z"/><path class="cls-6" d="M123.64,156.78,118.76,154c-.39-.22-.34-.62.11-.88l4.83-2.79a1.69,1.69,0,0,1,1.53-.06L130.1,153c.4.23.35.62-.11.88l-4.83,2.79A1.71,1.71,0,0,1,123.64,156.78Z"/><path class="cls-6" d="M116.14,152.45l-4.87-2.81c-.39-.23-.35-.63.11-.89l4.83-2.79a1.69,1.69,0,0,1,1.53-.06l4.87,2.82c.39.22.34.62-.11.88l-4.83,2.79A1.69,1.69,0,0,1,116.14,152.45Z"/><path class="cls-6" d="M108.65,148.12l-4.88-2.81c-.39-.23-.34-.62.11-.88l4.83-2.79a1.73,1.73,0,0,1,1.53-.07l4.88,2.82c.39.23.34.62-.11.88l-4.83,2.79A1.69,1.69,0,0,1,108.65,148.12Z"/><path class="cls-6" d="M101.16,143.8,96.28,141c-.39-.22-.34-.62.11-.88l4.83-2.79a1.69,1.69,0,0,1,1.53-.06l4.88,2.81c.39.23.34.63-.11.89l-4.84,2.79A1.7,1.7,0,0,1,101.16,143.8Z"/><path class="cls-6" d="M108.86,139.35,104,136.54c-.4-.23-.35-.63.11-.89l1.59-.92a1.69,1.69,0,0,1,1.53-.06l4.88,2.81c.39.23.34.62-.11.89l-1.6.92A1.69,1.69,0,0,1,108.86,139.35Z"/><path class="cls-6" d="M118.64,145l-4.88-2.82c-.39-.23-.34-.62.11-.88l1.6-.92a1.73,1.73,0,0,1,1.53-.07l4.87,2.82c.4.22.35.62-.11.88l-1.59.92A1.73,1.73,0,0,1,118.64,145Z"/><path class="cls-6" d="M126.1,149.3l-4.87-2.81c-.4-.23-.35-.62.11-.88l1.59-.93a1.72,1.72,0,0,1,1.53-.06l4.88,2.82c.39.22.34.62-.11.88l-1.6.92A1.69,1.69,0,0,1,126.1,149.3Z"/><path class="cls-6" d="M133.56,153.61l-4.87-2.81c-.39-.23-.35-.62.11-.89l1.59-.92a1.69,1.69,0,0,1,1.53-.06l4.88,2.81c.39.23.34.63-.11.89l-1.6.92A1.69,1.69,0,0,1,133.56,153.61Z"/><path class="cls-6" d="M141,157.92l-4.87-2.82c-.39-.22-.34-.62.11-.88l1.6-.92a1.67,1.67,0,0,1,1.52-.06l4.88,2.81c.39.23.34.62-.11.88l-1.6.93A1.69,1.69,0,0,1,141,157.92Z"/><path class="cls-6" d="M182.68,182l-4.87-2.81c-.4-.23-.35-.63.11-.89l1.59-.92a1.69,1.69,0,0,1,1.53-.06l4.88,2.81c.39.23.34.62-.11.88l-1.6.93A1.69,1.69,0,0,1,182.68,182Z"/><path class="cls-6" d="M190.14,186.28l-4.87-2.82c-.39-.22-.35-.62.11-.88l1.59-.92a1.69,1.69,0,0,1,1.53-.06l4.88,2.81c.39.23.34.62-.11.88l-1.6.92A1.7,1.7,0,0,1,190.14,186.28Z"/><path class="cls-6" d="M197.6,190.59l-4.87-2.82c-.39-.23-.34-.62.11-.88l1.6-.92a1.71,1.71,0,0,1,1.52-.07l4.88,2.82c.39.22.34.62-.11.88l-1.6.92A1.73,1.73,0,0,1,197.6,190.59Z"/><path class="cls-6" d="M205.07,194.89l-4.88-2.81c-.39-.23-.34-.62.11-.88l1.6-.93a1.7,1.7,0,0,1,1.52-.06L208.3,193c.39.22.34.62-.11.88l-1.6.92A1.67,1.67,0,0,1,205.07,194.89Z"/><path class="cls-6" d="M131.17,161.12l-4.88-2.81c-.39-.23-.34-.62.11-.88l4.83-2.79a1.73,1.73,0,0,1,1.53-.07l4.87,2.82c.4.23.35.62-.11.88l-4.83,2.79A1.67,1.67,0,0,1,131.17,161.12Z"/><path class="cls-6" d="M138.7,165.47l-4.88-2.81c-.39-.23-.34-.62.11-.89l4.83-2.78a1.7,1.7,0,0,1,1.53-.07l4.87,2.82c.4.22.35.62-.11.88l-4.83,2.79A1.67,1.67,0,0,1,138.7,165.47Z"/><path class="cls-6" d="M146.23,169.82,141.35,167c-.39-.22-.34-.62.11-.88l4.83-2.79a1.69,1.69,0,0,1,1.53-.06l4.87,2.81c.4.23.35.63-.1.89l-4.84,2.79A1.67,1.67,0,0,1,146.23,169.82Z"/><path class="cls-6" d="M153.76,174.17l-4.88-2.82c-.39-.22-.34-.62.11-.88l4.83-2.79a1.69,1.69,0,0,1,1.53-.06l4.88,2.81c.39.23.34.62-.11.88l-4.84,2.79A1.71,1.71,0,0,1,153.76,174.17Z"/><path class="cls-6" d="M161.29,178.51l-4.88-2.81c-.39-.23-.34-.62.11-.88l4.83-2.79a1.73,1.73,0,0,1,1.53-.07l4.88,2.82c.39.23.34.62-.11.88l-4.84,2.79A1.67,1.67,0,0,1,161.29,178.51Z"/><path class="cls-6" d="M168.82,182.86l-4.88-2.81c-.39-.23-.34-.62.11-.88l4.83-2.79a1.7,1.7,0,0,1,1.53-.07l4.88,2.82c.39.22.34.62-.11.88l-4.84,2.79A1.67,1.67,0,0,1,168.82,182.86Z"/><path class="cls-6" d="M176.35,187.21l-4.88-2.82c-.39-.22-.34-.62.11-.88l4.83-2.79a1.69,1.69,0,0,1,1.53-.06l4.88,2.82c.39.22.34.62-.11.88l-4.84,2.79A1.67,1.67,0,0,1,176.35,187.21Z"/><path class="cls-6" d="M183.88,191.56,179,188.74c-.39-.22-.34-.62.11-.88l4.83-2.79a1.69,1.69,0,0,1,1.53-.06l4.88,2.81c.39.23.34.62-.11.88l-4.83,2.79A1.7,1.7,0,0,1,183.88,191.56Z"/><path class="cls-6" d="M191.41,195.91l-4.88-2.82c-.39-.23-.34-.62.11-.88l4.83-2.79a1.69,1.69,0,0,1,1.53-.06l4.88,2.81c.39.23.34.62-.11.88l-4.83,2.79A1.73,1.73,0,0,1,191.41,195.91Z"/><path class="cls-6" d="M88.11,161.66l-14.36-8.29c-.39-.23-.34-.62.11-.88l4.83-2.79a1.69,1.69,0,0,1,1.53-.06l14.36,8.29c.39.22.35.62-.11.88l-4.83,2.79A1.69,1.69,0,0,1,88.11,161.66Z"/><path class="cls-6" d="M180.63,215.07l-14.37-8.29c-.39-.22-.34-.62.11-.88l4.84-2.79a1.67,1.67,0,0,1,1.52-.06l14.36,8.29c.4.22.35.62-.11.88L182.15,215A1.67,1.67,0,0,1,180.63,215.07Z"/><path class="cls-6" d="M150.51,207.29l-4.88-2.82c-.39-.22-.34-.62.11-.88l5.76-3.32a1.69,1.69,0,0,1,1.53-.06L157.9,203c.39.23.35.62-.11.88L152,207.23A1.69,1.69,0,0,1,150.51,207.29Z"/><path class="cls-6" d="M95.83,175.72,88,171.21c-.39-.22-.35-.62.11-.88L93.89,167a1.69,1.69,0,0,1,1.53-.06l7.8,4.5c.39.22.34.62-.11.88l-5.76,3.32A1.71,1.71,0,0,1,95.83,175.72Z"/><path class="cls-6" d="M143.26,203.1l-7.8-4.5c-.39-.23-.35-.62.11-.88l5.75-3.33a1.69,1.69,0,0,1,1.53-.06l7.8,4.5c.39.23.34.62-.11.88L144.78,203A1.67,1.67,0,0,1,143.26,203.1Z"/><path class="cls-6" d="M106.69,182l-7.8-4.5c-.39-.23-.34-.62.11-.88l5.76-3.33a1.67,1.67,0,0,1,1.52-.06l7.8,4.5c.39.23.35.62-.11.88l-5.75,3.33A1.69,1.69,0,0,1,106.69,182Z"/><path class="cls-6" d="M106.34,173.25l33.9,19.57c.42.25.42.64,0,.88l-5.87,3.39a1.63,1.63,0,0,1-1.52,0L98.94,177.52Z"/><path class="cls-6" d="M171.56,215.17l5.43,3.14c.32.18.28.51-.09.72l-2.36,1.36a1.38,1.38,0,0,1-1.25.05l-5.43-3.13c-.32-.19-.28-.51.09-.73l2.35-1.36A1.44,1.44,0,0,1,171.56,215.17Z"/><path class="cls-6" d="M164,210.79l5.44,3.13c.32.19.28.51-.09.73L167,216a1.42,1.42,0,0,1-1.25.05l-5.43-3.14c-.32-.18-.28-.51.09-.72l2.35-1.36A1.38,1.38,0,0,1,164,210.79Z"/><path class="cls-6" d="M156.43,206.44l5.44,3.14c.32.18.28.51-.09.72l-2.36,1.36a1.38,1.38,0,0,1-1.25.05l-5.43-3.14c-.32-.18-.28-.5.09-.72l2.35-1.36A1.42,1.42,0,0,1,156.43,206.44Z"/><path class="cls-6" d="M168.12,208.39l5.43,3.13c.32.19.28.51-.09.73l-2.35,1.36a1.42,1.42,0,0,1-1.25,0l-5.43-3.14c-.33-.18-.28-.51.09-.72l2.35-1.36A1.38,1.38,0,0,1,168.12,208.39Z"/></g><g class="cls-5"><path class="cls-6" d="M70.31,161l-4.87-2.82c-.4-.22-.35-.62.11-.88L71.3,154a1.73,1.73,0,0,1,1.53-.07l4.88,2.82c.39.22.34.62-.11.88l-5.76,3.32A1.73,1.73,0,0,1,70.31,161Z"/><path class="cls-6" d="M77.84,165.33,73,162.52c-.39-.23-.35-.62.11-.88l5.75-3.33a1.72,1.72,0,0,1,1.53-.06l4.88,2.82c.39.22.34.62-.11.88l-5.76,3.32A1.69,1.69,0,0,1,77.84,165.33Z"/><path class="cls-6" d="M85.37,169.68l-4.87-2.81c-.39-.23-.35-.62.11-.89l5.75-3.32a1.69,1.69,0,0,1,1.53-.06l4.88,2.81c.39.23.34.62-.11.89l-5.76,3.32A1.69,1.69,0,0,1,85.37,169.68Z"/><path class="cls-6" d="M95.79,166.09l-4.88-2.81c-.39-.23-.34-.62.11-.89l4.83-2.78a1.7,1.7,0,0,1,1.53-.07l4.88,2.82c.39.22.34.62-.11.88L97.32,166A1.69,1.69,0,0,1,95.79,166.09Z"/><path class="cls-6" d="M103.32,170.44l-4.88-2.82c-.39-.22-.34-.62.11-.88l4.83-2.79a1.69,1.69,0,0,1,1.53-.06l4.88,2.81c.39.23.34.63-.11.89l-4.83,2.79A1.69,1.69,0,0,1,103.32,170.44Z"/><path class="cls-6" d="M110.85,174.79,106,172c-.39-.22-.34-.62.11-.88l4.83-2.79a1.69,1.69,0,0,1,1.53-.06l4.88,2.81c.39.23.34.62-.11.88l-4.83,2.79A1.73,1.73,0,0,1,110.85,174.79Z"/><path class="cls-6" d="M118.38,179.13l-4.88-2.81c-.39-.23-.34-.62.11-.88l4.83-2.79a1.73,1.73,0,0,1,1.53-.07l4.88,2.82c.39.23.34.62-.11.88l-4.83,2.79A1.69,1.69,0,0,1,118.38,179.13Z"/><path class="cls-6" d="M125.91,183.48,121,180.67c-.39-.23-.34-.62.11-.89L126,177a1.7,1.7,0,0,1,1.53-.07l4.88,2.82c.39.22.34.62-.11.88l-4.83,2.79A1.69,1.69,0,0,1,125.91,183.48Z"/><path class="cls-6" d="M133.44,187.83,128.56,185c-.39-.22-.34-.62.11-.88l4.83-2.79a1.69,1.69,0,0,1,1.53-.06l4.88,2.82c.39.22.34.62-.11.88L135,187.77A1.69,1.69,0,0,1,133.44,187.83Z"/><path class="cls-6" d="M141,192.18l-4.88-2.82c-.39-.22-.34-.62.11-.88l4.83-2.79a1.69,1.69,0,0,1,1.53-.06l4.88,2.81c.39.23.34.62-.11.88l-4.83,2.79A1.7,1.7,0,0,1,141,192.18Z"/><path class="cls-6" d="M148.5,196.52l-4.88-2.81c-.39-.23-.34-.62.11-.88l4.83-2.79a1.69,1.69,0,0,1,1.53-.06l4.88,2.81c.39.23.34.62-.11.88L150,196.46A1.69,1.69,0,0,1,148.5,196.52Z"/><path class="cls-6" d="M156,200.87l-4.88-2.81c-.39-.23-.34-.62.11-.88l4.84-2.79a1.67,1.67,0,0,1,1.52-.07l4.88,2.82c.39.22.34.62-.11.88l-4.83,2.79A1.69,1.69,0,0,1,156,200.87Z"/><path class="cls-6" d="M163.56,205.22l-4.88-2.82c-.39-.22-.34-.62.11-.88l4.84-2.79a1.67,1.67,0,0,1,1.52-.06l4.88,2.82c.39.22.34.62-.11.88l-4.83,2.79A1.69,1.69,0,0,1,163.56,205.22Z"/><path class="cls-6" d="M106.88,164,102,161.22c-.39-.23-.35-.62.11-.88l4.83-2.79a1.73,1.73,0,0,1,1.53-.07l4.87,2.82c.39.22.34.62-.11.88L108.41,164A1.69,1.69,0,0,1,106.88,164Z"/><path class="cls-6" d="M99.24,159.62l-4.88-2.81c-.39-.23-.34-.63.11-.89l4.84-2.79a1.67,1.67,0,0,1,1.52-.06l4.88,2.82c.39.22.34.62-.11.88l-4.83,2.79A1.69,1.69,0,0,1,99.24,159.62Z"/><path class="cls-6" d="M91.59,155.2l-10.51-6.06c-.39-.23-.34-.62.11-.88L86,145.47a1.73,1.73,0,0,1,1.53-.07l10.5,6.07c.4.22.35.62-.11.88l-4.83,2.79A1.67,1.67,0,0,1,91.59,155.2Z"/><path class="cls-6" d="M96.94,149.83l-8.53-4.92c-.39-.23-.34-.63.11-.89l4.83-2.79a1.73,1.73,0,0,1,1.53-.06l8.52,4.92c.4.23.35.62-.1.88l-4.84,2.79A1.71,1.71,0,0,1,96.94,149.83Z"/><path class="cls-6" d="M114.41,168.38l-4.87-2.81c-.39-.23-.35-.63.11-.89l4.83-2.79a1.72,1.72,0,0,1,1.53-.06l4.87,2.82c.39.22.34.62-.11.88l-4.83,2.79A1.69,1.69,0,0,1,114.41,168.38Z"/><path class="cls-6" d="M121.94,172.73l-4.87-2.82c-.39-.22-.34-.62.11-.88l4.83-2.79a1.69,1.69,0,0,1,1.53-.06l4.87,2.81c.39.23.34.62-.11.89l-4.83,2.79A1.72,1.72,0,0,1,121.94,172.73Z"/><path class="cls-6" d="M129.47,177.08l-4.87-2.82c-.39-.23-.34-.62.11-.88l4.83-2.79a1.69,1.69,0,0,1,1.53-.06l4.87,2.81c.39.23.35.62-.11.88L131,177A1.73,1.73,0,0,1,129.47,177.08Z"/><path class="cls-6" d="M137,181.42l-4.87-2.81c-.39-.23-.34-.62.11-.88l4.83-2.79a1.73,1.73,0,0,1,1.53-.07l4.87,2.82c.39.23.35.62-.11.88l-4.83,2.79A1.69,1.69,0,0,1,137,181.42Z"/><path class="cls-6" d="M144.53,185.77,139.66,183c-.39-.23-.34-.62.11-.89l4.83-2.79a1.72,1.72,0,0,1,1.53-.06L151,182c.39.22.35.62-.11.88l-4.83,2.79A1.69,1.69,0,0,1,144.53,185.77Z"/><path class="cls-6" d="M152.06,190.12l-4.87-2.82c-.39-.22-.34-.62.11-.88l4.83-2.79a1.69,1.69,0,0,1,1.53-.06l4.87,2.81c.4.23.35.63-.11.89l-4.83,2.79A1.69,1.69,0,0,1,152.06,190.12Z"/><path class="cls-6" d="M159.6,194.47l-4.88-2.82c-.39-.22-.34-.62.11-.88l4.83-2.79a1.69,1.69,0,0,1,1.53-.06l4.87,2.81c.4.23.35.62-.11.88l-4.83,2.79A1.71,1.71,0,0,1,159.6,194.47Z"/><path class="cls-6" d="M167.13,198.81,162.25,196c-.39-.23-.34-.62.11-.88l4.83-2.79a1.73,1.73,0,0,1,1.53-.07l4.87,2.82c.4.23.35.62-.11.88l-4.83,2.79A1.67,1.67,0,0,1,167.13,198.81Z"/><path class="cls-6" d="M174.66,203.16l-4.88-2.81c-.39-.23-.34-.62.11-.89l4.83-2.78a1.7,1.7,0,0,1,1.53-.07l4.87,2.82c.4.22.35.62-.11.88l-4.83,2.79A1.67,1.67,0,0,1,174.66,203.16Z"/><path class="cls-6" d="M188,210.89l-10.64-6.14c-.39-.23-.34-.62.11-.88l4.83-2.79a1.73,1.73,0,0,1,1.53-.07l10.64,6.15c.39.22.34.62-.11.88l-4.83,2.79A1.69,1.69,0,0,1,188,210.89Z"/><path class="cls-6" d="M202.7,202.43l-9-5.19c-.39-.22-.34-.62.11-.88l4.83-2.79a1.69,1.69,0,0,1,1.53-.06l9,5.18c.39.23.34.62-.11.88l-4.83,2.79A1.73,1.73,0,0,1,202.7,202.43Z"/><path class="cls-6" d="M127.6,167.53l-4.88-2.81c-.39-.23-.34-.63.11-.89l4.84-2.79a1.67,1.67,0,0,1,1.52-.06l4.88,2.82c.39.22.34.62-.11.88l-4.83,2.79A1.69,1.69,0,0,1,127.6,167.53Z"/><path class="cls-6" d="M119.88,163.07,115,160.26c-.39-.23-.35-.62.11-.88l4.83-2.79a1.73,1.73,0,0,1,1.53-.07l4.87,2.82c.39.23.34.62-.11.88L121.41,163A1.69,1.69,0,0,1,119.88,163.07Z"/><path class="cls-6" d="M112.17,158.62l-4.88-2.82c-.39-.22-.34-.62.11-.88l4.83-2.79a1.69,1.69,0,0,1,1.53-.06l4.87,2.81c.4.23.35.63-.11.89l-4.83,2.79A1.7,1.7,0,0,1,112.17,158.62Z"/><path class="cls-6" d="M104.45,154.16l-4.88-2.81c-.39-.23-.34-.62.11-.88l4.83-2.79a1.73,1.73,0,0,1,1.53-.07l4.88,2.82c.39.22.34.62-.11.88L106,154.1A1.69,1.69,0,0,1,104.45,154.16Z"/><path class="cls-6" d="M135.13,171.88l-4.88-2.82c-.39-.22-.34-.62.11-.88l4.84-2.79a1.67,1.67,0,0,1,1.52-.06l4.88,2.81c.39.23.34.62-.11.89l-4.83,2.78A1.7,1.7,0,0,1,135.13,171.88Z"/><path class="cls-6" d="M142.66,176.23l-4.87-2.82c-.4-.23-.35-.62.1-.88l4.84-2.79a1.67,1.67,0,0,1,1.52-.06l4.88,2.81c.39.23.34.62-.11.88l-4.83,2.79A1.73,1.73,0,0,1,142.66,176.23Z"/><path class="cls-6" d="M150.19,180.57l-4.87-2.81c-.4-.23-.35-.62.1-.88l4.84-2.79a1.71,1.71,0,0,1,1.52-.07l4.88,2.82c.39.22.34.62-.11.88l-4.83,2.79A1.69,1.69,0,0,1,150.19,180.57Z"/><path class="cls-6" d="M157.72,184.92l-4.87-2.81c-.4-.23-.35-.63.11-.89l4.83-2.79a1.67,1.67,0,0,1,1.52-.06l4.88,2.82c.39.22.34.62-.11.88l-4.83,2.79A1.69,1.69,0,0,1,157.72,184.92Z"/><path class="cls-6" d="M165.25,189.27l-4.87-2.82c-.4-.22-.35-.62.11-.88l4.83-2.79a1.67,1.67,0,0,1,1.52-.06l4.88,2.81c.39.23.34.62-.11.89l-4.83,2.79A1.72,1.72,0,0,1,165.25,189.27Z"/><path class="cls-6" d="M172.78,193.62l-4.87-2.82c-.4-.23-.35-.62.11-.88l4.83-2.79a1.67,1.67,0,0,1,1.52-.06l4.88,2.81c.39.23.34.62-.11.88l-4.83,2.79A1.73,1.73,0,0,1,172.78,193.62Z"/><path class="cls-6" d="M180.31,198l-4.87-2.81c-.4-.23-.35-.62.11-.88l4.83-2.79a1.71,1.71,0,0,1,1.52-.07l4.88,2.82c.39.22.34.62-.11.88l-4.83,2.79A1.69,1.69,0,0,1,180.31,198Z"/><path class="cls-6" d="M187.84,202.31,183,199.5c-.39-.23-.35-.62.11-.89l4.83-2.79a1.72,1.72,0,0,1,1.53-.06l4.87,2.82c.39.22.34.62-.11.88l-4.83,2.79A1.69,1.69,0,0,1,187.84,202.31Z"/><path class="cls-6" d="M195.37,206.66l-4.87-2.82c-.39-.22-.35-.62.11-.88l4.83-2.79a1.69,1.69,0,0,1,1.53-.06l4.87,2.81c.39.23.34.62-.11.89l-4.83,2.79A1.72,1.72,0,0,1,195.37,206.66Z"/><path class="cls-6" d="M123.64,156.78,118.76,154c-.39-.22-.34-.62.11-.88l4.83-2.79a1.69,1.69,0,0,1,1.53-.06L130.1,153c.4.23.35.62-.11.88l-4.83,2.79A1.71,1.71,0,0,1,123.64,156.78Z"/><path class="cls-6" d="M116.14,152.45l-4.87-2.81c-.39-.23-.35-.63.11-.89l4.83-2.79a1.69,1.69,0,0,1,1.53-.06l4.87,2.82c.39.22.34.62-.11.88l-4.83,2.79A1.69,1.69,0,0,1,116.14,152.45Z"/><path class="cls-6" d="M108.65,148.12l-4.88-2.81c-.39-.23-.34-.62.11-.88l4.83-2.79a1.73,1.73,0,0,1,1.53-.07l4.88,2.82c.39.23.34.62-.11.88l-4.83,2.79A1.69,1.69,0,0,1,108.65,148.12Z"/><path class="cls-6" d="M101.16,143.8,96.28,141c-.39-.22-.34-.62.11-.88l4.83-2.79a1.69,1.69,0,0,1,1.53-.06l4.88,2.81c.39.23.34.63-.11.89l-4.84,2.79A1.7,1.7,0,0,1,101.16,143.8Z"/><path class="cls-6" d="M108.86,139.35,104,136.54c-.4-.23-.35-.63.11-.89l1.59-.92a1.69,1.69,0,0,1,1.53-.06l4.88,2.81c.39.23.34.62-.11.89l-1.6.92A1.69,1.69,0,0,1,108.86,139.35Z"/><path class="cls-6" d="M118.64,145l-4.88-2.82c-.39-.23-.34-.62.11-.88l1.6-.92a1.73,1.73,0,0,1,1.53-.07l4.87,2.82c.4.22.35.62-.11.88l-1.59.92A1.73,1.73,0,0,1,118.64,145Z"/><path class="cls-6" d="M126.1,149.3l-4.87-2.81c-.4-.23-.35-.62.11-.88l1.59-.93a1.72,1.72,0,0,1,1.53-.06l4.88,2.82c.39.22.34.62-.11.88l-1.6.92A1.69,1.69,0,0,1,126.1,149.3Z"/><path class="cls-6" d="M133.56,153.61l-4.87-2.81c-.39-.23-.35-.62.11-.89l1.59-.92a1.69,1.69,0,0,1,1.53-.06l4.88,2.81c.39.23.34.63-.11.89l-1.6.92A1.69,1.69,0,0,1,133.56,153.61Z"/><path class="cls-6" d="M141,157.92l-4.87-2.82c-.39-.22-.34-.62.11-.88l1.6-.92a1.67,1.67,0,0,1,1.52-.06l4.88,2.81c.39.23.34.62-.11.88l-1.6.93A1.69,1.69,0,0,1,141,157.92Z"/><path class="cls-6" d="M182.68,182l-4.87-2.81c-.4-.23-.35-.63.11-.89l1.59-.92a1.69,1.69,0,0,1,1.53-.06l4.88,2.81c.39.23.34.62-.11.88l-1.6.93A1.69,1.69,0,0,1,182.68,182Z"/><path class="cls-6" d="M190.14,186.28l-4.87-2.82c-.39-.22-.35-.62.11-.88l1.59-.92a1.69,1.69,0,0,1,1.53-.06l4.88,2.81c.39.23.34.62-.11.88l-1.6.92A1.7,1.7,0,0,1,190.14,186.28Z"/><path class="cls-6" d="M197.6,190.59l-4.87-2.82c-.39-.23-.34-.62.11-.88l1.6-.92a1.71,1.71,0,0,1,1.52-.07l4.88,2.82c.39.22.34.62-.11.88l-1.6.92A1.73,1.73,0,0,1,197.6,190.59Z"/><path class="cls-6" d="M205.07,194.89l-4.88-2.81c-.39-.23-.34-.62.11-.88l1.6-.93a1.7,1.7,0,0,1,1.52-.06L208.3,193c.39.22.34.62-.11.88l-1.6.92A1.67,1.67,0,0,1,205.07,194.89Z"/><path class="cls-6" d="M131.17,161.12l-4.88-2.81c-.39-.23-.34-.62.11-.88l4.83-2.79a1.73,1.73,0,0,1,1.53-.07l4.87,2.82c.4.23.35.62-.11.88l-4.83,2.79A1.67,1.67,0,0,1,131.17,161.12Z"/><path class="cls-6" d="M138.7,165.47l-4.88-2.81c-.39-.23-.34-.62.11-.89l4.83-2.78a1.7,1.7,0,0,1,1.53-.07l4.87,2.82c.4.22.35.62-.11.88l-4.83,2.79A1.67,1.67,0,0,1,138.7,165.47Z"/><path class="cls-6" d="M146.23,169.82,141.35,167c-.39-.22-.34-.62.11-.88l4.83-2.79a1.69,1.69,0,0,1,1.53-.06l4.87,2.81c.4.23.35.63-.1.89l-4.84,2.79A1.67,1.67,0,0,1,146.23,169.82Z"/><path class="cls-6" d="M153.76,174.17l-4.88-2.82c-.39-.22-.34-.62.11-.88l4.83-2.79a1.69,1.69,0,0,1,1.53-.06l4.88,2.81c.39.23.34.62-.11.88l-4.84,2.79A1.71,1.71,0,0,1,153.76,174.17Z"/><path class="cls-6" d="M161.29,178.51l-4.88-2.81c-.39-.23-.34-.62.11-.88l4.83-2.79a1.73,1.73,0,0,1,1.53-.07l4.88,2.82c.39.23.34.62-.11.88l-4.84,2.79A1.67,1.67,0,0,1,161.29,178.51Z"/><path class="cls-6" d="M168.82,182.86l-4.88-2.81c-.39-.23-.34-.62.11-.88l4.83-2.79a1.7,1.7,0,0,1,1.53-.07l4.88,2.82c.39.22.34.62-.11.88l-4.84,2.79A1.67,1.67,0,0,1,168.82,182.86Z"/><path class="cls-6" d="M176.35,187.21l-4.88-2.82c-.39-.22-.34-.62.11-.88l4.83-2.79a1.69,1.69,0,0,1,1.53-.06l4.88,2.82c.39.22.34.62-.11.88l-4.84,2.79A1.67,1.67,0,0,1,176.35,187.21Z"/><path class="cls-6" d="M183.88,191.56,179,188.74c-.39-.22-.34-.62.11-.88l4.83-2.79a1.69,1.69,0,0,1,1.53-.06l4.88,2.81c.39.23.34.62-.11.88l-4.83,2.79A1.7,1.7,0,0,1,183.88,191.56Z"/><path class="cls-6" d="M191.41,195.91l-4.88-2.82c-.39-.23-.34-.62.11-.88l4.83-2.79a1.69,1.69,0,0,1,1.53-.06l4.88,2.81c.39.23.34.62-.11.88l-4.83,2.79A1.73,1.73,0,0,1,191.41,195.91Z"/><path class="cls-6" d="M88.11,161.66l-14.36-8.29c-.39-.23-.34-.62.11-.88l4.83-2.79a1.69,1.69,0,0,1,1.53-.06l14.36,8.29c.39.22.35.62-.11.88l-4.83,2.79A1.69,1.69,0,0,1,88.11,161.66Z"/><path class="cls-6" d="M180.63,215.07l-14.37-8.29c-.39-.22-.34-.62.11-.88l4.84-2.79a1.67,1.67,0,0,1,1.52-.06l14.36,8.29c.4.22.35.62-.11.88L182.15,215A1.67,1.67,0,0,1,180.63,215.07Z"/><path class="cls-6" d="M150.51,207.29l-4.88-2.82c-.39-.22-.34-.62.11-.88l5.76-3.32a1.69,1.69,0,0,1,1.53-.06L157.9,203c.39.23.35.62-.11.88L152,207.23A1.69,1.69,0,0,1,150.51,207.29Z"/><path class="cls-6" d="M95.83,175.72,88,171.21c-.39-.22-.35-.62.11-.88L93.89,167a1.69,1.69,0,0,1,1.53-.06l7.8,4.5c.39.22.34.62-.11.88l-5.76,3.32A1.71,1.71,0,0,1,95.83,175.72Z"/><path class="cls-6" d="M143.26,203.1l-7.8-4.5c-.39-.23-.35-.62.11-.88l5.75-3.33a1.69,1.69,0,0,1,1.53-.06l7.8,4.5c.39.23.34.62-.11.88L144.78,203A1.67,1.67,0,0,1,143.26,203.1Z"/><path class="cls-6" d="M106.69,182l-7.8-4.5c-.39-.23-.34-.62.11-.88l5.76-3.33a1.67,1.67,0,0,1,1.52-.06l7.8,4.5c.39.23.35.62-.11.88l-5.75,3.33A1.69,1.69,0,0,1,106.69,182Z"/><path class="cls-6" d="M106.34,173.25l33.9,19.57c.42.25.42.64,0,.88l-5.87,3.39a1.63,1.63,0,0,1-1.52,0L98.94,177.52Z"/><path class="cls-6" d="M171.56,215.17l5.43,3.14c.32.18.28.51-.09.72l-2.36,1.36a1.38,1.38,0,0,1-1.25.05l-5.43-3.13c-.32-.19-.28-.51.09-.73l2.35-1.36A1.44,1.44,0,0,1,171.56,215.17Z"/><path class="cls-6" d="M164,210.79l5.44,3.13c.32.19.28.51-.09.73L167,216a1.42,1.42,0,0,1-1.25.05l-5.43-3.14c-.32-.18-.28-.51.09-.72l2.35-1.36A1.38,1.38,0,0,1,164,210.79Z"/><path class="cls-6" d="M156.43,206.44l5.44,3.14c.32.18.28.51-.09.72l-2.36,1.36a1.38,1.38,0,0,1-1.25.05l-5.43-3.14c-.32-.18-.28-.5.09-.72l2.35-1.36A1.42,1.42,0,0,1,156.43,206.44Z"/><path class="cls-6" d="M168.12,208.39l5.43,3.13c.32.19.28.51-.09.73l-2.35,1.36a1.42,1.42,0,0,1-1.25,0l-5.43-3.14c-.33-.18-.28-.51.09-.72l2.35-1.36A1.38,1.38,0,0,1,168.12,208.39Z"/></g><path class="cls-7" d="M247.82,199.59,104,116.53a6.35,6.35,0,0,1-2.64-7.1L133.85,3.79c.81-2.62,3.3-3.68,5.56-2.37L283.27,84.47a6.39,6.39,0,0,1,2.64,7.11L253.37,197.21C252.57,199.83,250.08,200.9,247.82,199.59Z"/><path class="cls-8" d="M246.46,195.89,106.92,115.26a6.1,6.1,0,0,1-2.52-6.8l31.1-101C136.27,5,138.65,4,140.82,5.2L280.36,85.83a6.11,6.11,0,0,1,2.52,6.8l-31.1,101A3.54,3.54,0,0,1,246.46,195.89Z"/><path class="cls-9" d="M246.46,195.89,106.92,115.26a6.1,6.1,0,0,1-2.52-6.8l31.1-101C136.27,5,138.65,4,140.82,5.2L280.36,85.83a6.11,6.11,0,0,1,2.52,6.8l-31.1,101A3.54,3.54,0,0,1,246.46,195.89Z"/><path class="cls-9" d="M246.46,195.89,106.92,115.26a6.1,6.1,0,0,1-2.52-6.8l31.1-101C136.27,5,138.65,4,140.82,5.2L280.36,85.83a6.11,6.11,0,0,1,2.52,6.8l-31.1,101A3.54,3.54,0,0,1,246.46,195.89Z"/><path class="cls-10" d="M239,165,144.5,110.5a4.19,4.19,0,0,1-1.73-4.67l21.36-69.36a2.43,2.43,0,0,1,3.65-1.56l94.46,54.54A4.16,4.16,0,0,1,264,94.11l-21.36,69.36A2.42,2.42,0,0,1,239,165Z"/><path class="cls-11" d="M226.2,166.71l-94.46-54.54A4.19,4.19,0,0,1,130,107.5l21.36-69.35A2.43,2.43,0,0,1,155,36.58l94.46,54.54a4.19,4.19,0,0,1,1.73,4.67l-21.36,69.36A2.43,2.43,0,0,1,226.2,166.71Z"/><g class="cls-12"><path class="cls-6" d="M226.2,166.71l-94.46-54.54A4.19,4.19,0,0,1,130,107.5l21.36-69.35A2.43,2.43,0,0,1,155,36.58l94.46,54.54a4.19,4.19,0,0,1,1.73,4.67l-21.36,69.36A2.43,2.43,0,0,1,226.2,166.71Z"/></g><path class="cls-4" d="M249.48,91.12,155,36.58a2.37,2.37,0,0,0-2.66.09,2.62,2.62,0,0,1,1.37.35l94.46,54.54a4.19,4.19,0,0,1,1.73,4.67l-21.36,69.36a2.88,2.88,0,0,1-1,1.47,2.5,2.5,0,0,0,2.28-1.91l21.36-69.36A4.19,4.19,0,0,0,249.48,91.12Z"/><path class="cls-9" d="M107.07,223.34a7.08,7.08,0,0,1-3.5-.82h0L65.72,200.68a2.74,2.74,0,0,1-1.55-2.34,3.57,3.57,0,0,1,2.08-2.89L85.73,184.2c2.38-1.37,5.88-1.51,8-.3l37.84,21.85a2.71,2.71,0,0,1,1.56,2.33A3.58,3.58,0,0,1,131,211l-19.48,11.25A9.16,9.16,0,0,1,107.07,223.34ZM90.21,184.18a8.11,8.11,0,0,0-3.93,1L66.8,196.4c-1,.56-1.54,1.27-1.54,1.94a1.73,1.73,0,0,0,1,1.39l37.84,21.85a7.75,7.75,0,0,0,6.86-.31L130.46,210c1-.56,1.54-1.27,1.54-1.94a1.73,1.73,0,0,0-1-1.39L93.14,184.84A6,6,0,0,0,90.21,184.18Z"/><path class="cls-4" d="M178,73l-5.84-3.37a1.51,1.51,0,0,1-.65-1.68h0a.87.87,0,0,1,1.31-.55l5.84,3.38a1.52,1.52,0,0,1,.65,1.67h0A.86.86,0,0,1,178,73Z"/><path class="cls-4" d="M191.94,81l-8.61-5a1.5,1.5,0,0,1-.65-1.68h0a.86.86,0,0,1,1.31-.54l8.61,5a1.53,1.53,0,0,1,.65,1.68h0A.86.86,0,0,1,191.94,81Z"/><path class="cls-4" d="M166.25,99l-5.84-3.37a1.53,1.53,0,0,1-.65-1.68h0a.87.87,0,0,1,1.31-.55l5.84,3.38a1.49,1.49,0,0,1,.65,1.67h0A.86.86,0,0,1,166.25,99Z"/><path class="cls-4" d="M178.65,106.13l-8.61-5a1.53,1.53,0,0,1-.65-1.68h0a.86.86,0,0,1,1.31-.55l8.61,5a1.51,1.51,0,0,1,.65,1.68h0A.86.86,0,0,1,178.65,106.13Z"/><path class="cls-4" d="M160.53,68.34l-3.64-2.11a1.5,1.5,0,0,1-.65-1.68h0a.86.86,0,0,1,1.31-.54l3.65,2.1a1.54,1.54,0,0,1,.65,1.68h0A.87.87,0,0,1,160.53,68.34Z"/><path class="cls-4" d="M171.51,80.14l-11.15-6.43a1.52,1.52,0,0,1-.64-1.68h0a.86.86,0,0,1,1.31-.55l11.14,6.44a1.5,1.5,0,0,1,.65,1.68h0A.86.86,0,0,1,171.51,80.14Z"/><path class="cls-4" d="M161.23,85.14,157.58,83a1.53,1.53,0,0,1-.65-1.68h0a.87.87,0,0,1,1.32-.54l3.64,2.1a1.51,1.51,0,0,1,.65,1.68h0A.86.86,0,0,1,161.23,85.14Z"/><path class="cls-4" d="M180,117.84l-9.74-5.63a1.53,1.53,0,0,1-.65-1.68h0a.86.86,0,0,1,1.31-.54l9.75,5.62a1.54,1.54,0,0,1,.65,1.68h0A.87.87,0,0,1,180,117.84Z"/><path class="cls-4" d="M157.14,93.71l-2.34-1.35a1.53,1.53,0,0,1-.65-1.68h0a.87.87,0,0,1,1.31-.55l2.35,1.36a1.51,1.51,0,0,1,.64,1.68h0A.86.86,0,0,1,157.14,93.71Z"/><path class="cls-4" d="M154.93,103.37,152,101.69a1.52,1.52,0,0,1-.65-1.68h0a.86.86,0,0,1,1.31-.55l2.91,1.68a1.53,1.53,0,0,1,.65,1.68h0A.87.87,0,0,1,154.93,103.37Z"/><path class="cls-4" d="M166.24,109.9l-7.67-4.43a1.53,1.53,0,0,1-.65-1.68h0a.87.87,0,0,1,1.32-.54l7.66,4.42a1.53,1.53,0,0,1,.65,1.68h0A.86.86,0,0,1,166.24,109.9Z"/><path class="cls-4" d="M156.14,109.53l-5.51-3.18a1.5,1.5,0,0,1-.65-1.68h0a.87.87,0,0,1,1.31-.55l5.51,3.19a1.53,1.53,0,0,1,.65,1.68h0A.86.86,0,0,1,156.14,109.53Z"/><path class="cls-4" d="M188.35,122.69l-3.54-2a1.54,1.54,0,0,1-.65-1.68h0a.87.87,0,0,1,1.32-.55l3.54,2a1.54,1.54,0,0,1,.65,1.68h0A.87.87,0,0,1,188.35,122.69Z"/><path class="cls-4" d="M174.8,93l-9.74-5.62a1.5,1.5,0,0,1-.65-1.68h0a.87.87,0,0,1,1.31-.55l9.74,5.63a1.5,1.5,0,0,1,.65,1.68h0A.86.86,0,0,1,174.8,93Z"/><path class="cls-13" d="M176,88.18l-17-9.81a1.53,1.53,0,0,1-.65-1.68h0a.88.88,0,0,1,1.32-.55l17,9.81a1.53,1.53,0,0,1,.65,1.68h0A.87.87,0,0,1,176,88.18Z"/><path class="cls-13" d="M165.93,93.32l-9.74-5.62a1.54,1.54,0,0,1-.65-1.68h0a.86.86,0,0,1,1.31-.55l9.75,5.63a1.53,1.53,0,0,1,.65,1.68h0A.87.87,0,0,1,165.93,93.32Z"/><path class="cls-13" d="M182.19,97.24l-3.54-2a1.54,1.54,0,0,1-.65-1.68h0a.86.86,0,0,1,1.31-.55l3.54,2a1.5,1.5,0,0,1,.65,1.68h0A.86.86,0,0,1,182.19,97.24Z"/><path class="cls-13" d="M218.2,96.17l-21-12.11a1.51,1.51,0,0,1-.65-1.68h0a.86.86,0,0,1,1.31-.54l21,12.1a1.51,1.51,0,0,1,.64,1.68h0A.87.87,0,0,1,218.2,96.17Z"/><path class="cls-14" d="M165.12,103.79,153.41,97a1.53,1.53,0,0,1-.65-1.68h0a.86.86,0,0,1,1.31-.54l11.72,6.76a1.51,1.51,0,0,1,.64,1.68h0A.87.87,0,0,1,165.12,103.79Z"/><path class="cls-14" d="M166.89,66.54l-8.61-5a1.5,1.5,0,0,1-.65-1.68h0a.86.86,0,0,1,1.31-.55l8.61,5A1.54,1.54,0,0,1,168.2,66h0A.86.86,0,0,1,166.89,66.54Z"/><path class="cls-13" d="M154.34,114l-10-5.76a1.51,1.51,0,0,1-.64-1.68h0A.86.86,0,0,1,145,106l10,5.75a1.54,1.54,0,0,1,.65,1.68h0A.86.86,0,0,1,154.34,114Z"/><path class="cls-4" d="M220.56,85.38l-4.27-2.46a1.12,1.12,0,0,1-.48-1.23h0a.63.63,0,0,1,1-.4L221,83.76a1.09,1.09,0,0,1,.47,1.22h0A.62.62,0,0,1,220.56,85.38Z"/><path class="cls-4" d="M228.7,90.09l-4.27-2.47a1.12,1.12,0,0,1-.48-1.23h0a.64.64,0,0,1,1-.4l4.27,2.47a1.12,1.12,0,0,1,.48,1.23h0A.64.64,0,0,1,228.7,90.09Z"/><path class="cls-4" d="M236.84,94.79l-4.27-2.47a1.1,1.1,0,0,1-.47-1.23h0a.64.64,0,0,1,1-.4l4.26,2.47a1.12,1.12,0,0,1,.48,1.23h0A.63.63,0,0,1,236.84,94.79Z"/><path class="cls-14" d="M240.84,97.1l-.13-.08a1.11,1.11,0,0,1-.47-1.22h0a.63.63,0,0,1,1-.4l.13.07a1.12,1.12,0,0,1,.47,1.23h0A.63.63,0,0,1,240.84,97.1Z"/></svg>